<svg width="74" height="74" viewBox="0 0 74 74" fill="none" xmlns="http://www.w3.org/2000/svg">
<g clip-path="url(#clip0_2432_219)">
<g filter="url(#filter0_di_2432_219)">
<circle cx="37" cy="37" r="30.7217" fill="#F07F7F"/>
</g>
<g filter="url(#filter1_f_2432_219)">
<path d="M64.2368 34C64.2368 48.8868 50.8868 60.9549 36 60.9549C21.1132 60.9549 9.0451 48.8868 9.0451 34C9.0451 19.1132 21.1132 7.0451 36 7.0451C50.8868 7.0451 64.2368 19.1132 64.2368 34Z" fill="#FFC6C6"/>
</g>
<g filter="url(#filter2_f_2432_219)">
<path d="M55.8815 28.4416C55.8815 39.7063 45.7797 48.8381 34.515 48.8381C23.2503 48.8381 14.1185 39.7063 14.1185 28.4416C14.1185 17.1769 23.2504 8.0451 34.515 8.0451C45.7797 8.0451 55.8815 17.1769 55.8815 28.4416Z" fill="#FFE5E5"/>
</g>
<g filter="url(#filter3_f_2432_219)">
<path d="M49.2286 24.7784C49.2286 28.0474 46.7223 30.6974 43.9276 30.6974C41.1328 30.6974 38.8672 28.0474 38.8672 24.7784C38.8672 21.5094 41.1328 18.8594 43.9276 18.8594C46.7223 18.8594 49.2286 21.5094 49.2286 24.7784Z" fill="#FFF9F9"/>
</g>
<g filter="url(#filter4_f_2432_219)">
<path d="M39.005 16.0395C40.0809 19.1264 35.9135 19.3107 31.706 20.7772C27.4984 22.2438 24.4817 24.5636 23.4058 21.4768C22.3298 18.3899 24.8685 14.6986 29.076 13.232C33.2836 11.7655 37.929 12.9527 39.005 16.0395Z" fill="#FFF9F9"/>
</g>
</g>
<defs>
<filter id="filter0_di_2432_219" x="2.27832" y="2.27832" width="69.4434" height="73.4434" filterUnits="userSpaceOnUse" color-interpolation-filters="sRGB">
<feFlood flood-opacity="0" result="BackgroundImageFix"/>
<feColorMatrix in="SourceAlpha" type="matrix" values="0 0 0 0 0 0 0 0 0 0 0 0 0 0 0 0 0 0 127 0" result="hardAlpha"/>
<feOffset dy="4"/>
<feGaussianBlur stdDeviation="2"/>
<feComposite in2="hardAlpha" operator="out"/>
<feColorMatrix type="matrix" values="0 0 0 0 0 0 0 0 0 0 0 0 0 0 0 0 0 0 0.25 0"/>
<feBlend mode="normal" in2="BackgroundImageFix" result="effect1_dropShadow_2432_219"/>
<feBlend mode="normal" in="SourceGraphic" in2="effect1_dropShadow_2432_219" result="shape"/>
<feColorMatrix in="SourceAlpha" type="matrix" values="0 0 0 0 0 0 0 0 0 0 0 0 0 0 0 0 0 0 127 0" result="hardAlpha"/>
<feOffset dy="-4"/>
<feGaussianBlur stdDeviation="2"/>
<feComposite in2="hardAlpha" operator="arithmetic" k2="-1" k3="1"/>
<feColorMatrix type="matrix" values="0 0 0 0 1 0 0 0 0 1 0 0 0 0 1 0 0 0 0.36 0"/>
<feBlend mode="normal" in2="shape" result="effect2_innerShadow_2432_219"/>
</filter>
<filter id="filter1_f_2432_219" x="5.0451" y="3.0451" width="63.1917" height="61.9098" filterUnits="userSpaceOnUse" color-interpolation-filters="sRGB">
<feFlood flood-opacity="0" result="BackgroundImageFix"/>
<feBlend mode="normal" in="SourceGraphic" in2="BackgroundImageFix" result="shape"/>
<feGaussianBlur stdDeviation="2" result="effect1_foregroundBlur_2432_219"/>
</filter>
<filter id="filter2_f_2432_219" x="10.1185" y="4.0451" width="49.763" height="48.793" filterUnits="userSpaceOnUse" color-interpolation-filters="sRGB">
<feFlood flood-opacity="0" result="BackgroundImageFix"/>
<feBlend mode="normal" in="SourceGraphic" in2="BackgroundImageFix" result="shape"/>
<feGaussianBlur stdDeviation="2" result="effect1_foregroundBlur_2432_219"/>
</filter>
<filter id="filter3_f_2432_219" x="34.8672" y="14.8594" width="18.3613" height="19.8381" filterUnits="userSpaceOnUse" color-interpolation-filters="sRGB">
<feFlood flood-opacity="0" result="BackgroundImageFix"/>
<feBlend mode="normal" in="SourceGraphic" in2="BackgroundImageFix" result="shape"/>
<feGaussianBlur stdDeviation="2" result="effect1_foregroundBlur_2432_219"/>
</filter>
<filter id="filter4_f_2432_219" x="19.1587" y="8.60724" width="24.0179" height="18.3932" filterUnits="userSpaceOnUse" color-interpolation-filters="sRGB">
<feFlood flood-opacity="0" result="BackgroundImageFix"/>
<feBlend mode="normal" in="SourceGraphic" in2="BackgroundImageFix" result="shape"/>
<feGaussianBlur stdDeviation="2" result="effect1_foregroundBlur_2432_219"/>
</filter>
<clipPath id="clip0_2432_219">
<rect width="74" height="74" fill="white"/>
</clipPath>
</defs>
</svg>
