<svg width="80" height="68" viewBox="0 0 80 68" fill="none" xmlns="http://www.w3.org/2000/svg">
<rect x="10.0785" y="9.40234" width="52" height="37.7188" fill="url(#paint0_linear_2430_380)"/>
<g filter="url(#filter0_d_2430_380)">
<rect x="0.738159" y="0.631836" width="70.6807" height="58.4475" rx="10" fill="url(#paint1_linear_2430_380)"/>
</g>
<path d="M44.5719 20.0186H31.0357L32.17 17.246C32.4113 16.6543 32.2348 15.9778 31.7365 15.578C31.2375 15.1785 30.5354 15.1564 30.0105 15.5211L20.8449 21.8874C20.4434 22.1662 20.2103 22.6297 20.2254 23.1181C20.2403 23.6061 20.5014 24.054 20.9193 24.3075L30.5033 30.1271C31.0486 30.4581 31.7459 30.3923 32.219 29.9652C32.6927 29.5382 32.8297 28.8436 32.5571 28.2676L31.2974 25.6027H44.5719C45.5515 25.6027 46.3483 26.4149 46.3483 27.3944V37.1032C46.3483 38.0827 45.5515 38.8649 44.5719 38.8649H29.8815C28.5711 38.8649 27.5087 39.9272 27.5087 41.2376V42.0761C27.5087 43.3867 28.5711 44.449 29.8815 44.449H44.5719C48.6305 44.449 51.9323 41.1621 51.9323 37.1032V27.3944C51.9324 23.3356 48.6305 20.0186 44.5719 20.0186Z" fill="white"/>
<defs>
<filter id="filter0_d_2430_380" x="0.738159" y="0.631836" width="78.6807" height="66.4475" filterUnits="userSpaceOnUse" color-interpolation-filters="sRGB">
<feFlood flood-opacity="0" result="BackgroundImageFix"/>
<feColorMatrix in="SourceAlpha" type="matrix" values="0 0 0 0 0 0 0 0 0 0 0 0 0 0 0 0 0 0 127 0" result="hardAlpha"/>
<feOffset dx="4" dy="4"/>
<feGaussianBlur stdDeviation="2"/>
<feComposite in2="hardAlpha" operator="out"/>
<feColorMatrix type="matrix" values="0 0 0 0 0 0 0 0 0 0 0 0 0 0 0 0 0 0 0.25 0"/>
<feBlend mode="normal" in2="BackgroundImageFix" result="effect1_dropShadow_2430_380"/>
<feBlend mode="normal" in="SourceGraphic" in2="effect1_dropShadow_2430_380" result="shape"/>
</filter>
<linearGradient id="paint0_linear_2430_380" x1="10.0785" y1="10.3048" x2="16.2344" y2="53.2498" gradientUnits="userSpaceOnUse">
<stop stop-color="#9747FF"/>
<stop offset="1" stop-color="#5D2381"/>
</linearGradient>
<linearGradient id="paint1_linear_2430_380" x1="0.738159" y1="29.8556" x2="71.4188" y2="29.8556" gradientUnits="userSpaceOnUse">
<stop stop-color="#9747FF"/>
<stop offset="1" stop-color="#5D2381"/>
</linearGradient>
</defs>
</svg>
