<svg width="82" height="82" viewBox="0 0 82 82" fill="none" xmlns="http://www.w3.org/2000/svg">
<path d="M59.4015 77.864C62.3967 76.3558 63.6032 72.7033 62.0937 69.7053C60.5837 66.7093 23.8272 -0.208993 20.8303 1.30077C17.8335 2.81008 49.7313 72.1764 51.2417 75.1713C52.7511 78.1693 56.4042 79.3748 59.4015 77.864ZM53.6391 71.8962C52.3195 69.2769 49.2432 62.9517 51.5326 62.2448C53.3131 61.2787 56.7145 67.0627 58.0338 69.6831C58.6444 70.8952 58.1554 72.3772 56.9437 72.9867C55.7326 73.5975 54.2506 73.1085 53.6391 71.8962Z" fill="url(#paint0_linear_2452_229)"/>
<path d="M58.5271 75.9237C61.1368 74.6097 62.188 71.4273 60.8728 68.8153C59.5571 66.2049 27.5319 7.90015 24.9207 9.21559C22.3097 10.5306 50.1017 70.9682 51.4177 73.5777C52.7328 76.1898 55.9157 77.2401 58.5271 75.9237ZM53.5064 70.7242C52.3568 68.442 49.6764 62.9309 51.6711 62.3151C53.2225 61.4733 56.186 66.5128 57.3355 68.7959C57.8675 69.852 57.4414 71.1432 56.3857 71.6743C55.3305 72.2065 54.0393 71.7803 53.5064 70.7242Z" fill="url(#paint1_radial_2452_229)"/>
<defs>
<linearGradient id="paint0_linear_2452_229" x1="17.9824" y1="73.7503" x2="57.8808" y2="-30.5057" gradientUnits="userSpaceOnUse">
<stop stop-color="#C1C1C1"/>
<stop offset="1" stop-color="#5B5B5B"/>
</linearGradient>
<radialGradient id="paint1_radial_2452_229" cx="0" cy="0" r="1" gradientUnits="userSpaceOnUse" gradientTransform="translate(53.8909 66.8013) rotate(-117.369) scale(68.5444 68.5442)">
<stop stop-color="#7F7F7F"/>
<stop offset="0.435" stop-color="#E5E5E5"/>
<stop offset="1" stop-color="#959595"/>
</radialGradient>
</defs>
</svg>
