<svg width="323" height="160" viewBox="0 0 323 160" fill="none" xmlns="http://www.w3.org/2000/svg">
<g filter="url(#filter0_bf_2418_310)">
<path d="M11.6775 89.6641L11.4855 47.1361L16.4775 46.8481L16.1895 99.9361H16.8615L51.7095 46.9441H56.8935L56.7015 89.3761L56.7975 108.288H51.8055L51.9975 89.6641V55.2961H51.4215L16.4775 108.288H11.4855L11.6775 89.6641ZM109.406 47.5201L108.926 51.2641L84.5422 51.1681L84.3502 89.3761L84.4462 108.288H79.4542L79.6462 89.6641L79.4542 46.9441H109.022L109.406 47.5201ZM138.243 46.8481C144.067 46.8481 148.547 48.3841 151.683 51.4561C154.819 54.4641 156.387 58.7841 156.387 64.4161C156.387 71.0721 154.467 76.2881 150.627 80.0641C146.851 83.7761 141.507 85.6321 134.595 85.6321H126.723V89.3761L126.915 108.288H121.923L122.211 89.6641L121.923 46.9441L138.243 46.8481ZM137.475 81.4081C141.955 80.8321 145.379 79.1041 147.747 76.2241C150.115 73.3441 151.299 69.5361 151.299 64.8001C151.299 60.3841 150.115 57.0241 147.747 54.7201C145.443 52.4161 142.083 51.2001 137.667 51.0721L127.011 51.2641L126.819 81.2161L137.475 81.4081ZM209.058 108.288H203.874L202.53 103.104L197.922 89.8561L183.33 89.6641L170.178 89.8561L165.186 102.912L163.746 108.288H158.562L181.986 46.9441H187.65L209.058 108.288ZM196.386 85.4401L184.962 52.7041H184.386L171.906 85.4401L183.906 85.5361L196.386 85.4401ZM249.13 47.5201L248.65 51.3601L238.378 51.0721H230.89L230.602 89.3761L230.794 108.288H225.802L226.09 89.6641L225.802 51.0721H218.314L207.85 51.3601L207.466 50.7841L207.946 46.9441H248.65L249.13 47.5201ZM279.658 73.3441C285.354 73.3441 289.674 74.7521 292.618 77.5681C295.626 80.3201 297.13 84.2881 297.13 89.4721C297.13 95.4881 295.146 100.128 291.178 103.392C287.274 106.656 281.642 108.288 274.282 108.288H261.61L261.802 89.6641L261.61 46.9441H266.602L266.506 73.3441H279.658ZM277.258 104.448C282.122 104 285.802 102.56 288.298 100.128C290.794 97.6321 292.042 94.2721 292.042 90.0481C292.042 85.9521 290.858 82.8161 288.49 80.6401C286.186 78.4001 282.762 77.2801 278.218 77.2801L266.506 77.3761L266.41 89.3761L266.602 104.256L277.258 104.448Z" fill="white"/>
</g>
<path d="M11.6775 89.6641L11.4855 47.1361L16.4775 46.8481L16.1895 99.9361H16.8615L51.7095 46.9441H56.8935L56.7015 89.3761L56.7975 108.288H51.8055L51.9975 89.6641V55.2961H51.4215L16.4775 108.288H11.4855L11.6775 89.6641ZM109.406 47.5201L108.926 51.2641L84.5422 51.1681L84.3502 89.3761L84.4462 108.288H79.4542L79.6462 89.6641L79.4542 46.9441H109.022L109.406 47.5201ZM138.243 46.8481C144.067 46.8481 148.547 48.3841 151.683 51.4561C154.819 54.4641 156.387 58.7841 156.387 64.4161C156.387 71.0721 154.467 76.2881 150.627 80.0641C146.851 83.7761 141.507 85.6321 134.595 85.6321H126.723V89.3761L126.915 108.288H121.923L122.211 89.6641L121.923 46.9441L138.243 46.8481ZM137.475 81.4081C141.955 80.8321 145.379 79.1041 147.747 76.2241C150.115 73.3441 151.299 69.5361 151.299 64.8001C151.299 60.3841 150.115 57.0241 147.747 54.7201C145.443 52.4161 142.083 51.2001 137.667 51.0721L127.011 51.2641L126.819 81.2161L137.475 81.4081ZM209.058 108.288H203.874L202.53 103.104L197.922 89.8561L183.33 89.6641L170.178 89.8561L165.186 102.912L163.746 108.288H158.562L181.986 46.9441H187.65L209.058 108.288ZM196.386 85.4401L184.962 52.7041H184.386L171.906 85.4401L183.906 85.5361L196.386 85.4401ZM249.13 47.5201L248.65 51.3601L238.378 51.0721H230.89L230.602 89.3761L230.794 108.288H225.802L226.09 89.6641L225.802 51.0721H218.314L207.85 51.3601L207.466 50.7841L207.946 46.9441H248.65L249.13 47.5201ZM279.658 73.3441C285.354 73.3441 289.674 74.7521 292.618 77.5681C295.626 80.3201 297.13 84.2881 297.13 89.4721C297.13 95.4881 295.146 100.128 291.178 103.392C287.274 106.656 281.642 108.288 274.282 108.288H261.61L261.802 89.6641L261.61 46.9441H266.602L266.506 73.3441H279.658ZM277.258 104.448C282.122 104 285.802 102.56 288.298 100.128C290.794 97.6321 292.042 94.2721 292.042 90.0481C292.042 85.9521 290.858 82.8161 288.49 80.6401C286.186 78.4001 282.762 77.2801 278.218 77.2801L266.506 77.3761L266.41 89.3761L266.602 104.256L277.258 104.448Z" fill="white"/>
<defs>
<filter id="filter0_bf_2418_310" x="1.48535" y="36.8481" width="305.645" height="81.4399" filterUnits="userSpaceOnUse" color-interpolation-filters="sRGB">
<feFlood flood-opacity="0" result="BackgroundImageFix"/>
<feGaussianBlur in="BackgroundImageFix" stdDeviation="5"/>
<feComposite in2="SourceAlpha" operator="in" result="effect1_backgroundBlur_2418_310"/>
<feBlend mode="normal" in="SourceGraphic" in2="effect1_backgroundBlur_2418_310" result="shape"/>
<feGaussianBlur stdDeviation="5" result="effect2_foregroundBlur_2418_310"/>
</filter>
</defs>
</svg>
